# xmcd
#
# Track frame offsets: 
#        150
#        16244
#        31339
#        47252
#        66230
#        81616
#        97361
#        114713
#        128243
#        147438
#
# Disc length: 2147 seconds
#
# Revision: 0
# Processed by: cddbd v1.5.2PL0 Copyright (c) Steve Scherf et al.
# Submitted via: ExactAudioCopy v1.0b1
#
DISCID=8f08610a
DTITLE=Martina McBride - Reckless
DYEAR=2016
DGENRE=Country
TTITLE0=Reckless
TTITLE1=It Ain't Pretty
TTITLE2=Just Around The Corner
TTITLE3=Everybody Wants to Be Loved
TTITLE4=The Real Thing
TTITLE5=That's The Thing About Love
TTITLE6=Low All Afternoon
TTITLE7=Diamond
TTITLE8=We'll Pick Up Where We Left Off
TTITLE9=You And You Alone
EXTD=
EXTT0=
EXTT1=
EXTT2=
EXTT3=
EXTT4=
EXTT5=
EXTT6=
EXTT7=
EXTT8=
EXTT9=
PLAYORDER=
